<svg width="15" height="15" viewBox="0 0 15 15" fill="none" xmlns="http://www.w3.org/2000/svg">
<g clip-path="url(#clip0_77_104)">
<path d="M4.88525 7.32787C4.88525 6.84477 5.02851 6.37251 5.29691 5.97082C5.5653 5.56914 5.94679 5.25606 6.39312 5.07118C6.83945 4.88631 7.33058 4.83793 7.80441 4.93218C8.27823 5.02643 8.71346 5.25907 9.05507 5.60068C9.39668 5.94228 9.62931 6.37752 9.72356 6.85134C9.81781 7.32516 9.76944 7.81629 9.58456 8.26262C9.39969 8.70896 9.08661 9.09044 8.68492 9.35884C8.28324 9.62724 7.81098 9.7705 7.32787 9.7705C6.68005 9.7705 6.05876 9.51315 5.60068 9.05507C5.1426 8.59699 4.88525 7.9757 4.88525 7.32787ZM3.56465 7.32787C3.56465 8.07206 3.78532 8.79954 4.19877 9.41832C4.61221 10.0371 5.19985 10.5194 5.88738 10.8042C6.57492 11.089 7.33147 11.1635 8.06137 11.0184C8.79127 10.8732 9.46173 10.5149 9.98798 9.98872C10.5142 9.46253 10.8726 8.7921 11.0179 8.06222C11.1631 7.33234 11.0887 6.57578 10.8039 5.88821C10.5192 5.20065 10.037 4.61295 9.41825 4.19944C8.79952 3.78592 8.07206 3.56517 7.32787 3.56508C6.83373 3.56506 6.34442 3.66238 5.88789 3.85147C5.43136 4.04056 5.01655 4.31772 4.66714 4.66714C4.31772 5.01655 4.04056 5.43136 3.85147 5.88789C3.66238 6.34442 3.56506 6.83373 3.56508 7.32787H3.56465ZM10.3596 3.41594C10.3595 3.58986 10.4111 3.75989 10.5076 3.90452C10.6042 4.04916 10.7415 4.16192 10.9022 4.22852C11.0628 4.29513 11.2396 4.3126 11.4102 4.27873C11.5808 4.24486 11.7375 4.16116 11.8605 4.03822C11.9836 3.91528 12.0674 3.75862 12.1013 3.58806C12.1353 3.41749 12.118 3.24068 12.0515 3.07998C11.985 2.91928 11.8723 2.78191 11.7277 2.68524C11.5831 2.58857 11.4132 2.53694 11.2392 2.53688C11.0061 2.53699 10.7825 2.62964 10.6177 2.79446C10.4528 2.95928 10.3601 3.18281 10.3599 3.41594H10.3596ZM4.36799 13.2926C3.90328 13.2873 3.44295 13.2021 3.00716 13.0406C2.68888 12.923 2.40091 12.7357 2.16431 12.4924C1.92072 12.2564 1.73337 11.9685 1.61616 11.6502C1.45442 11.2144 1.36898 10.7541 1.36356 10.2893C1.32807 9.5169 1.32045 9.28485 1.32045 7.32802C1.32045 5.37119 1.32807 5.13971 1.36356 4.36669C1.3694 3.90204 1.45463 3.4418 1.61558 3.00586C1.73323 2.68759 1.92051 2.39962 2.16373 2.16302C2.39993 1.91929 2.68801 1.73193 3.00658 1.61486C3.44253 1.45321 3.90307 1.36791 4.36799 1.3627C5.14043 1.32721 5.37248 1.31959 7.32787 1.31959C9.28327 1.31959 9.51618 1.32721 10.2892 1.3627C10.7539 1.36853 11.2141 1.45377 11.65 1.61472C11.9684 1.73214 12.2564 1.91946 12.4929 2.16287C12.7363 2.39932 12.9236 2.68733 13.041 3.00572C13.2026 3.44149 13.2878 3.90183 13.293 4.36655C13.3285 5.13957 13.3362 5.37104 13.3362 7.32787C13.3362 9.2847 13.3291 9.51618 13.293 10.2892C13.2874 10.7539 13.2022 11.2142 13.041 11.65C12.9191 11.966 12.7323 12.253 12.4927 12.4925C12.2532 12.732 11.9661 12.9186 11.65 13.0405C11.2143 13.202 10.7539 13.2872 10.2892 13.2925C9.51675 13.328 9.2847 13.3356 7.32787 13.3356C5.37104 13.3356 5.13957 13.3285 4.36799 13.2925V13.2926ZM4.30678 0.0443983C3.6989 0.056424 3.09748 0.17152 2.52812 0.384785C2.0391 0.568796 1.59609 0.857209 1.22993 1.22993C0.856825 1.59575 0.56831 2.03879 0.384642 2.52797C0.171429 3.09739 0.0563812 3.69887 0.0443983 4.30678C0.00833366 5.08813 0 5.33785 0 7.32787C0 9.31789 0.00833366 9.56762 0.0443983 10.349C0.0564379 10.9568 0.171534 11.5583 0.384785 12.1276C0.568447 12.6168 0.856907 13.0599 1.22993 13.4258C1.59621 13.7984 2.03913 14.0868 2.52797 14.2711C3.09736 14.4843 3.69877 14.5994 4.30663 14.6115C5.08842 14.647 5.33771 14.6559 7.32773 14.6559C9.31775 14.6559 9.56747 14.6476 10.3488 14.6115C10.9567 14.5995 11.5581 14.4844 12.1275 14.2711C12.6144 14.0829 13.0566 13.795 13.4257 13.4258C13.7948 13.0567 14.0827 12.6145 14.271 12.1276C14.4845 11.5583 14.5996 10.9569 14.6113 10.349C14.6468 9.56704 14.6545 9.31789 14.6545 7.32787C14.6545 5.33785 14.6461 5.08813 14.6113 4.30678C14.5993 3.6989 14.4842 3.09747 14.271 2.52812C14.0867 2.03924 13.7983 1.59628 13.4258 1.22993C13.0601 0.857029 12.6172 0.568538 12.1283 0.384641C11.559 0.171267 10.9575 0.0562146 10.3495 0.0443983C9.56833 0.00890839 9.31847 0 7.32787 0C5.33728 0 5.08784 0.00833366 4.3062 0.0443983" fill="url(#paint0_radial_77_104)"/>
<path d="M4.88525 7.32787C4.88525 6.84477 5.02851 6.37251 5.29691 5.97082C5.5653 5.56914 5.94679 5.25606 6.39312 5.07118C6.83945 4.88631 7.33058 4.83793 7.80441 4.93218C8.27823 5.02643 8.71346 5.25907 9.05507 5.60068C9.39668 5.94228 9.62931 6.37752 9.72356 6.85134C9.81781 7.32516 9.76944 7.81629 9.58456 8.26262C9.39969 8.70896 9.08661 9.09044 8.68492 9.35884C8.28324 9.62724 7.81098 9.7705 7.32787 9.7705C6.68005 9.7705 6.05876 9.51315 5.60068 9.05507C5.1426 8.59699 4.88525 7.9757 4.88525 7.32787ZM3.56465 7.32787C3.56465 8.07206 3.78532 8.79954 4.19877 9.41832C4.61221 10.0371 5.19985 10.5194 5.88738 10.8042C6.57492 11.089 7.33147 11.1635 8.06137 11.0184C8.79127 10.8732 9.46173 10.5149 9.98798 9.98872C10.5142 9.46253 10.8726 8.7921 11.0179 8.06222C11.1631 7.33234 11.0887 6.57578 10.8039 5.88821C10.5192 5.20065 10.037 4.61295 9.41825 4.19944C8.79952 3.78592 8.07206 3.56517 7.32787 3.56508C6.83373 3.56506 6.34442 3.66238 5.88789 3.85147C5.43136 4.04056 5.01655 4.31772 4.66714 4.66714C4.31772 5.01655 4.04056 5.43136 3.85147 5.88789C3.66238 6.34442 3.56506 6.83373 3.56508 7.32787H3.56465ZM10.3596 3.41594C10.3595 3.58986 10.4111 3.75989 10.5076 3.90452C10.6042 4.04916 10.7415 4.16192 10.9022 4.22852C11.0628 4.29513 11.2396 4.3126 11.4102 4.27873C11.5808 4.24486 11.7375 4.16116 11.8605 4.03822C11.9836 3.91528 12.0674 3.75862 12.1013 3.58806C12.1353 3.41749 12.118 3.24068 12.0515 3.07998C11.985 2.91928 11.8723 2.78191 11.7277 2.68524C11.5831 2.58857 11.4132 2.53694 11.2392 2.53688C11.0061 2.53699 10.7825 2.62964 10.6177 2.79446C10.4528 2.95928 10.3601 3.18281 10.3599 3.41594H10.3596ZM4.36799 13.2926C3.90328 13.2873 3.44295 13.2021 3.00716 13.0406C2.68888 12.923 2.40091 12.7357 2.16431 12.4924C1.92072 12.2564 1.73337 11.9685 1.61616 11.6502C1.45442 11.2144 1.36898 10.7541 1.36356 10.2893C1.32807 9.5169 1.32045 9.28485 1.32045 7.32802C1.32045 5.37119 1.32807 5.13971 1.36356 4.36669C1.3694 3.90204 1.45463 3.4418 1.61558 3.00586C1.73323 2.68759 1.92051 2.39962 2.16373 2.16302C2.39993 1.91929 2.68801 1.73193 3.00658 1.61486C3.44253 1.45321 3.90307 1.36791 4.36799 1.3627C5.14043 1.32721 5.37248 1.31959 7.32787 1.31959C9.28327 1.31959 9.51618 1.32721 10.2892 1.3627C10.7539 1.36853 11.2141 1.45377 11.65 1.61472C11.9684 1.73214 12.2564 1.91946 12.4929 2.16287C12.7363 2.39932 12.9236 2.68733 13.041 3.00572C13.2026 3.44149 13.2878 3.90183 13.293 4.36655C13.3285 5.13957 13.3362 5.37104 13.3362 7.32787C13.3362 9.2847 13.3291 9.51618 13.293 10.2892C13.2874 10.7539 13.2022 11.2142 13.041 11.65C12.9191 11.966 12.7323 12.253 12.4927 12.4925C12.2532 12.732 11.9661 12.9186 11.65 13.0405C11.2143 13.202 10.7539 13.2872 10.2892 13.2925C9.51675 13.328 9.2847 13.3356 7.32787 13.3356C5.37104 13.3356 5.13957 13.3285 4.36799 13.2925V13.2926ZM4.30678 0.0443983C3.6989 0.056424 3.09748 0.17152 2.52812 0.384785C2.0391 0.568796 1.59609 0.857209 1.22993 1.22993C0.856825 1.59575 0.56831 2.03879 0.384642 2.52797C0.171429 3.09739 0.0563812 3.69887 0.0443983 4.30678C0.00833366 5.08813 0 5.33785 0 7.32787C0 9.31789 0.00833366 9.56762 0.0443983 10.349C0.0564379 10.9568 0.171534 11.5583 0.384785 12.1276C0.568447 12.6168 0.856907 13.0599 1.22993 13.4258C1.59621 13.7984 2.03913 14.0868 2.52797 14.2711C3.09736 14.4843 3.69877 14.5994 4.30663 14.6115C5.08842 14.647 5.33771 14.6559 7.32773 14.6559C9.31775 14.6559 9.56747 14.6476 10.3488 14.6115C10.9567 14.5995 11.5581 14.4844 12.1275 14.2711C12.6144 14.0829 13.0566 13.795 13.4257 13.4258C13.7948 13.0567 14.0827 12.6145 14.271 12.1276C14.4845 11.5583 14.5996 10.9569 14.6113 10.349C14.6468 9.56704 14.6545 9.31789 14.6545 7.32787C14.6545 5.33785 14.6461 5.08813 14.6113 4.30678C14.5993 3.6989 14.4842 3.09747 14.271 2.52812C14.0867 2.03924 13.7983 1.59628 13.4258 1.22993C13.0601 0.857029 12.6172 0.568538 12.1283 0.384641C11.559 0.171267 10.9575 0.0562146 10.3495 0.0443983C9.56833 0.00890839 9.31847 0 7.32787 0C5.33728 0 5.08784 0.00833366 4.3062 0.0443983" fill="url(#paint1_radial_77_104)"/>
</g>
<defs>
<radialGradient id="paint0_radial_77_104" cx="0" cy="0" r="1" gradientUnits="userSpaceOnUse" gradientTransform="translate(1.94706 14.725) scale(19.1311)">
<stop offset="0.09" stop-color="#FA8F21"/>
<stop offset="0.78" stop-color="#D82D7E"/>
</radialGradient>
<radialGradient id="paint1_radial_77_104" cx="0" cy="0" r="1" gradientUnits="userSpaceOnUse" gradientTransform="translate(8.88814 15.3815) scale(15.0779)">
<stop offset="0.64" stop-color="#8C3AAA" stop-opacity="0"/>
<stop offset="1" stop-color="#8C3AAA"/>
</radialGradient>
<clipPath id="clip0_77_104">
<rect width="14.6552" height="14.6557" fill="white"/>
</clipPath>
</defs>
</svg>
