<!-- Generated by IcoMoon.io -->
<svg version="1.1" xmlns="http://www.w3.org/2000/svg" width="1024" height="1024" viewBox="0 0 1024 1024">
<title></title>
<g id="icomoon-ignore">
</g>
<path fill="#000" d="M456.096 575.456c40-17.984 128.704 26.080 128.704 26.080 103.936 62.304-39.040-194.336-39.040-194.336s-2.976-80.096-20.96-90.080c-149.984 210.016-108.704 276.352-68.704 258.336zM510.080 376.32c12.128 0 63.104 152.928 57.088 184.928-40.032-4-77.088-19.104-99.104-7.104-61.984 28.096 28.032-177.824 42.016-177.824zM385.536 257.696c-3.68 233.76-129.472 323.712-129.472 462.912 0 118.784 81.28 270.4 251.84 270.4 170.528 0 260.032-145.056 260.032-271.488 0-141.952-127.776-231.168-127.776-463.296h-129.376c0 0-121.536 1.472-125.248 1.472zM614.112 287.36c0 216.672 123.776 299.936 123.776 432.416 0 118.016-80.32 241.792-229.536 241.792s-222.336-129.92-222.336-240.768c0-129.92 122.048-215.744 125.312-433.92 3.264 0 99.552 0.512 99.552 0.512h103.232zM399.84 223.552h224c8.832 0 16-7.168 16-16s-7.168-16-16-16h-224c-8.8 0-16 7.168-16 16s7.2 16 16 16zM399.84 159.552h224c8.832 0 16-7.168 16-16s-7.168-16-16-16h-224c-8.8 0-16 7.168-16 16s7.2 16 16 16zM608.096 94.624c0 0 0-10.688 0-28.8s-14.208-32.8-31.744-32.8h-128.992c-17.568 0-31.744 14.688-31.744 32.8s1.984 28.8 1.984 28.8h190.496z"></path>
</svg>
